PathFileType	4	(X/Y/Z)	20_2_83_p0_0-448.trc
DataRate	CameraRate	NumFrames	NumMarkers	Units	OrigDataRate	OrigDataStartFrame	OrigNumFrames
59.0	59.0	5	27	m	59.0	112	449
Frame#	Time	RHip			RKnee			RAnkle			RBigToe			RSmallToe			RHeel			LHip			LKnee			LAnkle			LBigToe			LSmallToe			LHeel			Neck			Head			Nose			RShoulder			RElbow			RWrist			RThumb			RIndex			RPinky			LShoulder			LElbow			LWrist			LThumb			LIndex			LPinky			
		X1	Y1	Z1	X2	Y2	Z2	X3	Y3	Z3	X4	Y4	Z4	X5	Y5	Z5	X6	Y6	Z6	X7	Y7	Z7	X8	Y8	Z8	X9	Y9	Z9	X10	Y10	Z10	X11	Y11	Z11	X12	Y12	Z12	X13	Y13	Z13	X14	Y14	Z14	X15	Y15	Z15	X16	Y16	Z16	X17	Y17	Z17	X18	Y18	Z18	X19	Y19	Z19	X20	Y20	Z20	X21	Y21	Z21	X22	Y22	Z22	X23	Y23	Z23	X24	Y24	Z24	X25	Y25	Z25	X26	Y26	Z26	X27	Y27	Z27	
112	1.8983050847457628	0.35068180393262827	0.601122155957399	0.9166754234854374	0.32572180981317356	0.617235963835109	1.3281119480510062	0.3152293389975117	0.7621352269251561	1.7659672498968038	0.29684475298768587	0.5454411239936022	1.7706352252016104	0.3438700513483037	0.5714276537051195	1.7752244685621574	0.323619787064696	0.8756192697689731	1.8506545368685168	0.15168434734639108	0.5617425671509173	0.9292187870934412	0.15408636467290585	0.6897933594272062	1.3588911858715331	0.16514120427150797	0.8145624179702691	1.7766501220020139	0.14977520114791903	0.5864179883980671	1.7779295429355062	0.11526525205144117	0.6577029840429067	1.7913859682602242	0.1873020881848949	0.9065378031401796	1.8377193488900305	0.23343459855850693	0.2967254632317708	0.4783552116911724	0.25792856745199105	0.13563817255686283	0.24985243961506357	0.2853263132249902	0.09038621258386871	0.40999352314751164	0.39892154558179593	0.31268435425325714	0.5090900001668022	0.4893675136240715	0.47021866863924877	0.7254681956824152	0.4257176452596263	0.423529205508936	0.9532225210229043	0.3289367197971559	0.3942014639364463	1.0217342245631207	0.33597576202207613	0.4088912521837334	1.0470232374793067	0.3759075560805164	0.4517726921524267	1.0685721463203126	0.09474426282236804	0.36381311405481526	0.5279936996175878	-0.0004587388000189591	0.5544227052694642	0.7478845181392884	0.05839962820175951	0.5074849340738625	0.9482939184942337	0.12684010708492216	0.4356344903166113	0.9777644552913409	0.12927578948839594	0.4391836834579274	1.030779448452113	0.10730446193343288	0.49533785827698024	1.06591833038383
113	1.9152542372881356	0.35112763767780536	0.6002059067571827	0.9047461220065857	0.32562284095125194	0.6167200379020985	1.3276867442264855	0.3161629805499996	0.7594505926875522	1.760882912585909	0.29759851477038013	0.5441471645599896	1.7702148746434054	0.3514906579701132	0.5680043835481079	1.7737582780178331	0.32073710867581784	0.8895229158021645	1.855897505718251	0.15357269742557764	0.5575741325234752	0.9171924003003461	0.15904427828268097	0.6734835597026722	1.3478492950955892	0.16512707203304403	0.8143074369139799	1.7765649207169718	0.15013075119448563	0.5853351107163133	1.7774349153702562	0.11883496067965729	0.6419649552045422	1.789315321554553	0.1806415512405158	0.896637869399423	1.833466888376093	0.237545377725657	0.2952160557458273	0.4815704691748977	0.2619386777788937	0.1361128213223121	0.2498225485350866	0.2927566023887984	0.10043724462096122	0.4090603057197566	0.3992359810401465	0.31187336569763247	0.5124869114850396	0.4893621119509743	0.4703014598312838	0.7252982861815934	0.4257243597736034	0.42345740523638464	0.952921232887149	0.32901071974208435	0.3943683112199794	1.0219262894839316	0.3360468421522267	0.40910408144045585	1.04703263235424	0.3797368283206773	0.46220193412845173	1.0699622187307407	0.09874413224461777	0.3515144879196207	0.5283811911801148	0.0006952897099764005	0.5515220138600669	0.7406205963390443	0.058732158535095086	0.5066724413856687	0.9520091244847698	0.13029689312610918	0.4233047271887693	0.9832648708411552	0.12929070240102994	0.4392342708322448	1.0309493019368008	0.10372079790181868	0.5081361800995405	1.06479231155131
114	1.9322033898305084	0.3530758076672434	0.5838812792015504	0.9030307330189191	0.325642667638831	0.6170090605708519	1.3277864009125095	0.316260370290119	0.759425381154994	1.7608958311403502	0.2982213722225277	0.5456030729868993	1.7709122991158257	0.35402144888106607	0.5855803116166903	1.7807058382623795	0.32423388105044415	0.871700195800426	1.8492103269490445	0.1523651371335061	0.5599486974856863	0.9252553934883231	0.15909696579298835	0.6734915468820134	1.3480479811443926	0.16537241761134586	0.8151555342886336	1.7769100701277898	0.15031747083521066	0.586000003509579	1.7778123861910942	0.12009115638566291	0.6412419497728374	1.785583007733532	0.182579335342305	0.90356393303847	1.8366107877302895	0.2378590576618784	0.29589180061846604	0.47841943235429785	0.2655987857712002	0.127479373388523	0.2572862827556095	0.2928644793885528	0.10047244714535779	0.4089539894150919	0.3992841874528093	0.3121039787054685	0.5124494816772641	0.4893747330889524	0.4704096024729433	0.7253537531607618	0.4257323779383869	0.42341870519213815	0.9530812386839318	0.32913553707594956	0.3945357205344318	1.0216584460610059	0.336129238397076	0.4093260025938741	1.046848658195077	0.37984270069668324	0.46310850489020033	1.0704441134269191	0.10258269798592633	0.35285697292993595	0.5314071726791565	0.0003022543793655597	0.5523161356285937	0.7442886297288055	0.05877260439596319	0.5065822763304894	0.9520874160655314	0.13484209650837192	0.42370868185745153	0.9834559738317544	0.12932044693025305	0.4392440829573041	1.0309903531958142	0.10411425706562144	0.5078771693871431	1.065058454494502
115	1.9491525423728813	0.349682919405841	0.6039523403567358	0.9250906859929203	0.3256368743884432	0.6171415430299565	1.3281666694334	0.3162554878571307	0.7598813379291693	1.7611389994979645	0.2980262157575857	0.5452375707590768	1.7707211881706997	0.3536047417614485	0.5849427610100205	1.780363651373838	0.3239739938685995	0.8723045102372875	1.8493823004105723	0.1546374446448812	0.5493996485858612	0.9355199234009093	0.15835028763254047	0.6750337983962338	1.351928661786533	0.1652652555589739	0.8150957737088079	1.7768733768818017	0.15024793968115172	0.5861503481617749	1.7779068641781095	0.12083482386113059	0.6445989408705171	1.7904256168310715	0.18152015230650909	0.8999434640950763	1.8348582182405233	0.24242062096873984	0.2950775990926936	0.4819046550776391	0.2656057918338196	0.12543603991336016	0.2540949865475988	0.292982120698469	0.10033013297568248	0.40904381383127875	0.4043090662696611	0.3248742776028077	0.5151350917649834	0.48538607338245493	0.4706883482399345	0.7255011142935222	0.4258194688871747	0.42373381665577464	0.9530750539245458	0.32915758069748	0.3943307346337037	1.0214365345994731	0.3361475070646916	0.40912452367891283	1.046579269712204	0.37984901767321966	0.46350945912379177	1.0704991768881362	0.09896380858645179	0.3649870770885252	0.5310644142640683	0.000434042091969591	0.5521614534037901	0.7442299327988493	0.058831920939980645	0.5064460394471592	0.9519961512970258	0.13479991993870138	0.42395407874630925	0.9835257625328196	0.12983905199876347	0.44147004025507824	1.0353488546356335	0.10431516428711785	0.5069934949338859	1.0685152993201381
116	1.9661016949152543	0.3530232945528479	0.5887108717427882	0.915273650836595	0.3255256217297885	0.6168497613260756	1.3280879310186418	0.31625110618230856	0.7598647447657199	1.76106711621443	0.2976836556250685	0.5432428721819065	1.769782879972879	0.3531836151521081	0.5854142154715242	1.7759611536116444	0.3241635266593067	0.871578288510892	1.8491214188521727	0.1552912728631321	0.5480702621995053	0.9318530219862946	0.15906689363442436	0.6735526118099157	1.3481744791289632	0.16526080350683686	0.8151282134461796	1.7768517035144444	0.15110824173237256	0.5888515989710552	1.7822178490015528	0.12081175471129528	0.6441963818081032	1.7901881516360019	0.18057861501449735	0.897882433957222	1.833726795976407	0.24304052835453072	0.29409298929558386	0.4791998853990351	0.26551942418270946	0.12543099275973646	0.25405592621822926	0.2965059771003659	0.10960358898700287	0.40794798187843206	0.40826526881385417	0.32545677393170763	0.5149216780487721	0.4860867764130492	0.47302990303783976	0.7294222529873559	0.42302209727982965	0.4372129094041781	0.9545417760570799	0.3292265366602828	0.39443611367556075	1.0215054611279895	0.33625888343635224	0.40906509875283137	1.0463867351255507	0.3800114883014086	0.4634864209412698	1.0704784330135917	0.10713129641853214	0.34054292472869063	0.5283649863683134	0.005034282000187251	0.5540156841302941	0.7441650484880222	0.058842938774054616	0.5064442961689808	0.9519893431161236	0.1351652459395392	0.4238203995244089	0.9838003679371462	0.13317275780459079	0.43952321147278467	1.0347742867570902	0.10816304053756516	0.49338751561737604	1.0698935008413293
